<?xml version="1.0" encoding="utf-8"?>
<!-- Generator: Adobe Illustrator 14.0.0, SVG Export Plug-In . SVG Version: 6.00 Build 43363)  -->
<!DOCTYPE svg PUBLIC "-//W3C//DTD SVG 1.1//EN" "http://www.w3.org/Graphics/SVG/1.1/DTD/svg11.dtd">
<svg version="1.1" id="Layer_1" xmlns="http://www.w3.org/2000/svg" xmlns:xlink="http://www.w3.org/1999/xlink" x="0px" y="0px"
	 width="907.087px" height="623.622px" viewBox="0 0 907.087 623.622" enable-background="new 0 0 907.087 623.622"
	 xml:space="preserve">
<g>
	<path fill="#FFDD00" d="M466.127,363.911c-5.434,5.438-14.332,5.438-19.766,0l-75.255-75.249c-5.432-5.437-5.432-14.334,0-19.767
		l75.255-75.254c5.434-5.44,14.333-5.44,19.766,0l75.253,75.254c5.435,5.433,5.435,14.33,0,19.767L466.127,363.911z"/>
	<path d="M456.244,371.275c-4.625,0-8.958-1.786-12.206-5.038l-75.255-75.252c-3.25-3.25-5.043-7.586-5.043-12.207
		c-0.001-4.623,1.793-8.961,5.041-12.21l75.26-75.251c3.245-3.253,7.578-5.041,12.203-5.041c4.623,0,8.959,1.788,12.207,5.041
		l75.25,75.251c6.734,6.731,6.734,17.685,0,24.417l-75.25,75.252C465.203,369.489,460.867,371.275,456.244,371.275 M456.244,192.851
		c-2.865,0-5.55,1.105-7.558,3.113l-75.256,75.255c-2.011,2.007-3.112,4.69-3.112,7.56c0,2.863,1.104,5.548,3.115,7.556
		l75.25,75.254c2.008,2.01,4.696,3.111,7.561,3.111s5.551-1.102,7.561-3.111l75.249-75.252c4.165-4.168,4.165-10.95,0-15.118
		l-75.249-75.255C461.795,193.956,459.109,192.851,456.244,192.851"/>
	<polygon points="451.92,291.034 452.123,317.943 444.359,317.993 456.572,334.127 469.486,318.198 462.184,318.198 
		462.078,291.273 479.903,309.208 474.389,314.728 495.225,316.968 492.773,296.954 487.275,301.263 469.326,282.654 
		495.018,282.654 495.018,291.034 511.359,278.571 495.018,265.501 495.018,273.667 469.076,273.667 487.461,254.267 
		492.773,259.784 495.018,239.151 474.594,241.808 479.943,247.628 462.168,266.114 462.133,239.151 469.895,239.151 
		456.572,223.424 444.359,239.358 452.123,239.358 451.92,266.52 432.311,247.525 437.873,241.601 416.323,239.151 419.385,259.784 
		424.956,253.858 443.75,273.465 417.811,273.261 417.811,265.501 401.135,278.571 417.811,291.034 417.811,282.654 
		444.157,282.654 425.16,301.652 419.445,296.954 416.307,316.968 437.826,314.728 431.902,309.208 	"/>
	<path d="M353.623,266.04l-3.578-1.899l-4.897,4.897l1.799,3.677l-2.937,2.938l-8.534-18.006l3.217-3.218l17.948,8.593
		L353.623,266.04z M340.033,259.045l-0.021,0.021l3.599,6.994l3.376-3.378L340.033,259.045z"/>
	<polygon points="365.713,253.949 354.762,242.997 350.764,246.994 348.467,244.696 359.258,233.904 361.557,236.202 
		357.541,240.22 368.493,251.171 	"/>
	<polygon points="373.068,246.595 359.818,233.345 369.572,223.592 371.869,225.889 364.814,232.945 367.652,235.782 
		374.148,229.287 376.486,231.625 369.99,238.12 373.408,241.538 380.783,234.163 383.141,236.522 	"/>
	<path d="M390.736,219.814c0.613,0.907,1.065,1.826,1.359,2.758c0.293,0.933,0.415,1.862,0.37,2.788
		c-0.047,0.926-0.27,1.829-0.67,2.708c-0.401,0.879-0.985,1.706-1.758,2.479c-0.867,0.866-1.824,1.529-2.869,1.987
		c-1.047,0.46-2.137,0.669-3.271,0.628c-1.134-0.04-2.286-0.335-3.46-0.883c-1.174-0.547-2.334-1.394-3.481-2.542
		c-1.12-1.12-1.988-2.274-2.603-3.462c-0.614-1.186-0.965-2.356-1.053-3.51c-0.085-1.153,0.086-2.28,0.518-3.38
		c0.434-1.099,1.121-2.123,2.068-3.069c0.827-0.826,1.701-1.45,2.622-1.876c0.921-0.422,1.843-0.66,2.765-0.709
		c0.924-0.051,1.822,0.076,2.695,0.375c0.875,0.302,1.678,0.752,2.411,1.352l-2.778,2.777c-0.947-0.572-1.896-0.802-2.849-0.69
		c-0.954,0.114-1.762,0.504-2.428,1.17c-1.158,1.159-1.595,2.429-1.309,3.808c0.287,1.379,1.157,2.794,2.609,4.246
		c1.479,1.479,2.898,2.358,4.257,2.638c1.359,0.28,2.578-0.119,3.658-1.198c0.826-0.826,1.264-1.713,1.318-2.659
		c0.053-0.945-0.246-1.931-0.899-2.958L390.736,219.814z"/>
	<polygon points="404.006,215.658 389.416,212.42 398.33,221.333 395.751,223.912 382.482,210.642 385.419,207.703 399.229,210.961 
		390.695,202.428 393.293,199.829 406.563,213.1 	"/>
	<path d="M414.139,206.444c-2.052,2.053-4.227,3.029-6.525,2.928c-2.299-0.099-4.574-1.276-6.826-3.527
		c-1.119-1.119-1.984-2.265-2.597-3.438c-0.613-1.173-0.956-2.341-1.031-3.507c-0.072-1.166,0.122-2.305,0.58-3.418
		c0.46-1.112,1.204-2.181,2.229-3.208c1.012-1.012,2.078-1.751,3.197-2.218c1.12-0.466,2.26-0.652,3.418-0.559
		c1.159,0.093,2.328,0.449,3.508,1.069c1.179,0.62,2.334,1.496,3.467,2.628c2.292,2.292,3.474,4.56,3.547,6.805
		C417.18,202.245,416.191,204.393,414.139,206.444 M411.761,204.066c0.491-0.493,0.868-1.049,1.13-1.669
		c0.258-0.619,0.367-1.276,0.328-1.969c-0.039-0.692-0.254-1.418-0.639-2.178c-0.387-0.759-0.972-1.532-1.759-2.318
		c-1.573-1.573-3.071-2.458-4.497-2.658c-1.425-0.2-2.726,0.286-3.896,1.459c-1.174,1.172-1.666,2.478-1.48,3.917
		c0.187,1.439,1.066,2.944,2.639,4.517c1.572,1.572,3.037,2.405,4.396,2.498C409.342,205.758,410.602,205.225,411.761,204.066"/>
	<polygon points="420.772,198.89 407.503,185.62 410.281,182.842 421.132,193.695 427.709,187.119 430.126,189.536 	"/>
	<path d="M436.604,183.98c-2.055,2.053-4.229,3.028-6.527,2.928c-2.297-0.099-4.574-1.276-6.825-3.528
		c-1.119-1.119-1.984-2.264-2.598-3.436c-0.613-1.174-0.954-2.342-1.029-3.508c-0.074-1.166,0.12-2.305,0.578-3.417
		c0.461-1.113,1.204-2.183,2.229-3.209c1.012-1.012,2.078-1.751,3.197-2.218c1.119-0.466,2.26-0.653,3.419-0.56
		c1.159,0.094,2.327,0.45,3.507,1.07c1.18,0.62,2.336,1.496,3.469,2.628c2.291,2.292,3.472,4.56,3.547,6.805
		C439.643,179.782,438.655,181.93,436.604,183.98 M434.224,181.603c0.491-0.493,0.868-1.05,1.128-1.668
		c0.262-0.62,0.371-1.277,0.33-1.97c-0.039-0.691-0.253-1.418-0.639-2.178c-0.385-0.76-0.972-1.532-1.758-2.318
		c-1.574-1.572-3.072-2.457-4.498-2.658c-1.425-0.2-2.724,0.287-3.896,1.459s-1.666,2.478-1.48,3.917
		c0.187,1.439,1.066,2.944,2.638,4.517c1.572,1.572,3.039,2.405,4.397,2.498C431.807,183.294,433.064,182.762,434.224,181.603"/>
	<path d="M453.131,166.534l-1.381-1.258c0.241,0.879,0.164,1.828-0.228,2.847c-0.395,1.019-1.051,1.989-1.969,2.909
		c-0.919,0.919-1.947,1.55-3.078,1.897c-1.133,0.346-2.293,0.453-3.479,0.32c-1.185-0.133-2.347-0.489-3.486-1.069
		c-1.14-0.579-2.169-1.33-3.088-2.249c-0.972-0.971-1.75-2.028-2.328-3.168c-0.58-1.139-0.918-2.301-1.01-3.487
		c-0.093-1.185,0.084-2.368,0.529-3.547c0.448-1.179,1.209-2.308,2.289-3.388c0.786-0.785,1.635-1.409,2.549-1.868
		c0.911-0.46,1.826-0.746,2.737-0.86c0.913-0.113,1.802-0.049,2.67,0.19c0.865,0.24,1.658,0.667,2.377,1.279l-2.803,2.804
		c-0.348-0.266-0.744-0.449-1.192-0.548c-0.445-0.1-0.902-0.116-1.37-0.05c-0.466,0.068-0.936,0.219-1.411,0.452
		c-0.473,0.234-0.897,0.538-1.27,0.912c-1.121,1.122-1.603,2.436-1.445,3.943c0.157,1.506,1.031,3.054,2.616,4.639
		c0.546,0.546,1.166,1.026,1.859,1.439c0.693,0.411,1.412,0.692,2.161,0.836c0.746,0.146,1.493,0.126,2.24-0.063
		c0.748-0.188,1.443-0.602,2.085-1.244c0.453-0.454,0.799-0.958,1.033-1.512c0.235-0.554,0.358-1.118,0.372-1.693
		c0.013-0.572-0.08-1.127-0.278-1.66c-0.201-0.533-0.506-1.006-0.918-1.42l-2.938,2.938l-2.219-2.218l5.537-5.536l7.133,7.135
		L453.131,166.534z"/>
	
		<rect x="443.296" y="151.749" transform="matrix(0.7071 0.7071 -0.7071 0.7071 241.2789 -275.0711)" width="18.768" height="3.929"/>
	<path d="M470.816,148.847l-3.578-1.898l-4.896,4.897l1.799,3.677l-2.938,2.937l-8.534-18.006l3.219-3.218l17.945,8.594
		L470.816,148.847z M457.226,141.853l-0.021,0.02l3.598,6.995l3.379-3.378L457.226,141.853z"/>
	<path d="M323.863,274.447c-0.057,0.056-0.107,0.1-0.156,0.128c-0.047,0.03-0.089,0.05-0.127,0.059
		c-0.039,0.008-0.072,0.008-0.102,0c-0.031-0.01-0.056-0.025-0.076-0.045l-2.988-2.989c-0.022-0.021-0.035-0.046-0.042-0.073
		c-0.007-0.028-0.007-0.061-0.001-0.101c0.008-0.041,0.027-0.084,0.054-0.131c0.031-0.047,0.073-0.098,0.129-0.155
		c0.053-0.052,0.105-0.094,0.151-0.124c0.047-0.029,0.09-0.05,0.13-0.061c0.036-0.012,0.072-0.015,0.104-0.009
		c0.033,0.006,0.061,0.02,0.084,0.044l1.194,1.193l4.35-4.351l-1.764-0.446c-0.085-0.026-0.147-0.053-0.186-0.081
		c-0.041-0.028-0.061-0.062-0.063-0.103c-0.002-0.038,0.016-0.084,0.053-0.136c0.037-0.052,0.09-0.111,0.158-0.179
		c0.049-0.05,0.094-0.09,0.133-0.122c0.041-0.031,0.076-0.053,0.11-0.068c0.031-0.016,0.064-0.023,0.098-0.025
		c0.034-0.001,0.073,0.003,0.117,0.011l2.163,0.474c0.02,0.002,0.042,0.01,0.067,0.021c0.023,0.013,0.051,0.029,0.084,0.049
		c0.031,0.021,0.065,0.048,0.103,0.082c0.037,0.034,0.082,0.077,0.135,0.131c0.07,0.07,0.125,0.132,0.168,0.185
		c0.041,0.053,0.068,0.098,0.086,0.135c0.016,0.038,0.02,0.068,0.014,0.092c-0.007,0.026-0.02,0.048-0.038,0.065l-5.027,5.027
		l1.035,1.035c0.024,0.024,0.038,0.052,0.045,0.087c0.008,0.033,0.006,0.069-0.006,0.108c-0.011,0.038-0.033,0.08-0.065,0.126
		C323.958,274.345,323.916,274.395,323.863,274.447"/>
	<path d="M328.464,278.998c-0.052,0.052-0.103,0.096-0.151,0.13c-0.049,0.035-0.094,0.058-0.135,0.074
		c-0.041,0.014-0.08,0.017-0.115,0.007c-0.036-0.007-0.067-0.025-0.092-0.052l-3.162-3.161c-0.043-0.042-0.073-0.083-0.094-0.124
		c-0.02-0.041-0.029-0.085-0.029-0.13c0.002-0.047,0.02-0.097,0.054-0.151c0.034-0.055,0.083-0.114,0.149-0.178
		c0.057-0.06,0.111-0.109,0.16-0.149c0.049-0.039,0.098-0.068,0.146-0.087c0.051-0.02,0.104-0.034,0.161-0.045
		c0.056-0.011,0.122-0.018,0.195-0.021l2.32-0.032c0.535-0.007,0.992-0.039,1.365-0.094c0.375-0.056,0.696-0.128,0.957-0.219
		c0.264-0.091,0.482-0.194,0.655-0.311c0.171-0.117,0.32-0.239,0.447-0.366c0.126-0.127,0.225-0.268,0.296-0.424
		c0.071-0.156,0.108-0.317,0.113-0.484c0.006-0.166-0.028-0.334-0.099-0.507c-0.074-0.171-0.187-0.336-0.345-0.494
		c-0.185-0.185-0.377-0.327-0.574-0.424c-0.199-0.097-0.381-0.173-0.553-0.224c-0.17-0.053-0.316-0.091-0.441-0.116
		c-0.124-0.023-0.205-0.054-0.241-0.09c-0.021-0.022-0.035-0.047-0.04-0.076c-0.005-0.028,0.001-0.061,0.017-0.098
		c0.015-0.037,0.043-0.081,0.08-0.131c0.039-0.05,0.09-0.107,0.15-0.168c0.045-0.044,0.084-0.081,0.121-0.11
		c0.035-0.031,0.067-0.053,0.098-0.07c0.031-0.016,0.063-0.029,0.096-0.037c0.033-0.009,0.082-0.011,0.148-0.007
		c0.066,0.005,0.17,0.023,0.311,0.058c0.138,0.033,0.299,0.09,0.482,0.17c0.182,0.079,0.371,0.181,0.565,0.303
		c0.193,0.122,0.376,0.27,0.548,0.444c0.28,0.278,0.482,0.559,0.612,0.845c0.13,0.285,0.195,0.565,0.197,0.838
		c0,0.272-0.055,0.532-0.167,0.78c-0.112,0.248-0.268,0.473-0.472,0.677c-0.183,0.183-0.38,0.349-0.595,0.497
		c-0.213,0.149-0.479,0.276-0.793,0.382c-0.315,0.107-0.703,0.189-1.157,0.249c-0.457,0.061-1.015,0.096-1.678,0.105l-1.853,0.039
		l2.489,2.489c0.024,0.024,0.041,0.054,0.05,0.089c0.008,0.036,0.008,0.075-0.002,0.117c-0.011,0.043-0.032,0.089-0.064,0.136
		C328.561,278.894,328.518,278.943,328.464,278.998"/>
	<path d="M333.642,281.229c-0.101,0.101-0.184,0.16-0.25,0.176c-0.066,0.016-0.125-0.003-0.179-0.056l-2.289-2.29
		c-0.052-0.051-0.069-0.109-0.053-0.177c0.014-0.067,0.07-0.153,0.172-0.253c0.102-0.103,0.187-0.161,0.256-0.176
		c0.068-0.015,0.125,0.003,0.176,0.053l2.29,2.291c0.054,0.053,0.073,0.112,0.055,0.179
		C333.806,281.041,333.744,281.127,333.642,281.229 M336.273,278.926c-0.233,0.233-0.478,0.414-0.738,0.541
		c-0.256,0.129-0.516,0.2-0.774,0.216c-0.259,0.014-0.521-0.031-0.779-0.138c-0.26-0.106-0.506-0.277-0.743-0.512
		c-0.249-0.251-0.433-0.502-0.548-0.757c-0.115-0.253-0.166-0.505-0.155-0.756c0.013-0.25,0.085-0.499,0.218-0.746
		c0.131-0.249,0.32-0.495,0.564-0.739c0.231-0.23,0.473-0.409,0.724-0.538c0.253-0.128,0.509-0.199,0.767-0.214
		c0.259-0.015,0.519,0.032,0.783,0.141c0.262,0.11,0.519,0.29,0.769,0.54c0.236,0.236,0.408,0.48,0.514,0.732
		c0.108,0.251,0.158,0.503,0.143,0.753c-0.008,0.251-0.079,0.502-0.206,0.753C336.685,278.452,336.506,278.693,336.273,278.926
		 M335.531,278.246c0.136-0.136,0.25-0.277,0.348-0.424c0.097-0.148,0.164-0.297,0.199-0.447c0.036-0.151,0.033-0.301-0.009-0.451
		c-0.04-0.151-0.134-0.298-0.278-0.443c-0.131-0.13-0.266-0.217-0.408-0.263c-0.144-0.045-0.289-0.055-0.437-0.029
		c-0.147,0.027-0.298,0.086-0.448,0.18c-0.154,0.092-0.303,0.212-0.449,0.359c-0.145,0.145-0.266,0.291-0.366,0.436
		c-0.097,0.146-0.164,0.294-0.196,0.441c-0.032,0.147-0.026,0.295,0.021,0.444c0.044,0.149,0.138,0.294,0.28,0.435
		c0.12,0.121,0.247,0.208,0.382,0.263c0.134,0.055,0.273,0.073,0.419,0.056c0.144-0.018,0.294-0.074,0.452-0.166
		C335.199,278.544,335.362,278.414,335.531,278.246"/>
	<path d="M343.675,284.073c-0.056,0.056-0.108,0.101-0.155,0.137c-0.046,0.035-0.09,0.059-0.131,0.068
		c-0.039,0.011-0.074,0.013-0.106,0.005c-0.031-0.007-0.056-0.022-0.076-0.041l-2.095-2.096l-1.948,1.946l1.982,1.98
		c0.02,0.02,0.034,0.045,0.044,0.074c0.009,0.03,0.009,0.063,0,0.103c-0.008,0.038-0.03,0.079-0.065,0.126
		c-0.032,0.045-0.082,0.099-0.142,0.161c-0.057,0.056-0.109,0.101-0.152,0.135c-0.048,0.033-0.089,0.056-0.13,0.066
		s-0.076,0.013-0.107,0.006c-0.033-0.005-0.06-0.019-0.08-0.039l-1.981-1.981l-2.382,2.383c-0.022,0.021-0.049,0.034-0.079,0.042
		c-0.031,0.007-0.066,0.002-0.107-0.018c-0.039-0.019-0.086-0.048-0.141-0.088c-0.054-0.039-0.119-0.097-0.195-0.174
		c-0.072-0.071-0.129-0.135-0.172-0.192c-0.043-0.058-0.073-0.107-0.092-0.146c-0.019-0.04-0.025-0.077-0.017-0.106
		c0.007-0.032,0.021-0.057,0.041-0.079l5.298-5.296c0.115-0.115,0.225-0.164,0.331-0.15c0.105,0.014,0.193,0.056,0.261,0.124
		l2.573,2.573c0.02,0.02,0.035,0.046,0.043,0.077c0.007,0.031,0.004,0.067-0.008,0.108c-0.012,0.042-0.035,0.086-0.073,0.135
		C343.778,283.964,343.731,284.017,343.675,284.073"/>
	<path d="M347.077,292.407c-0.465,0.464-0.935,0.826-1.416,1.088c-0.481,0.263-0.959,0.416-1.438,0.46
		c-0.476,0.044-0.949-0.027-1.416-0.214c-0.468-0.188-0.92-0.5-1.355-0.935c-0.43-0.431-0.739-0.867-0.924-1.309
		c-0.187-0.442-0.259-0.888-0.219-1.337c0.039-0.45,0.189-0.906,0.453-1.369c0.262-0.463,0.629-0.93,1.101-1.401
		c0.452-0.451,0.915-0.807,1.392-1.066c0.479-0.259,0.954-0.409,1.431-0.449c0.475-0.04,0.947,0.033,1.414,0.221
		c0.468,0.187,0.92,0.499,1.356,0.935c0.421,0.423,0.726,0.852,0.91,1.291c0.186,0.439,0.261,0.885,0.226,1.336
		c-0.035,0.45-0.181,0.906-0.437,1.365C347.896,291.483,347.539,291.945,347.077,292.407 M346.216,291.656
		c0.324-0.324,0.598-0.654,0.819-0.99c0.221-0.336,0.367-0.673,0.438-1.013c0.07-0.339,0.052-0.677-0.058-1.015
		c-0.107-0.339-0.326-0.674-0.656-1.004c-0.33-0.33-0.67-0.544-1.017-0.644c-0.348-0.1-0.695-0.117-1.04-0.05
		c-0.345,0.066-0.687,0.208-1.023,0.423c-0.337,0.215-0.656,0.473-0.961,0.778c-0.336,0.336-0.617,0.673-0.844,1.012
		c-0.226,0.34-0.377,0.678-0.449,1.015c-0.072,0.336-0.053,0.674,0.055,1.01c0.109,0.335,0.332,0.67,0.668,1.006
		c0.33,0.333,0.674,0.551,1.023,0.654c0.352,0.102,0.701,0.118,1.049,0.045c0.35-0.072,0.693-0.217,1.027-0.435
		C345.583,292.229,345.908,291.965,346.216,291.656 M349.352,285.939c0.071-0.006,0.133-0.003,0.184,0.007
		c0.05,0.01,0.102,0.029,0.154,0.055c0.049,0.026,0.103,0.064,0.16,0.113c0.059,0.048,0.123,0.109,0.195,0.183
		c0.09,0.089,0.153,0.164,0.19,0.227c0.036,0.063,0.055,0.116,0.055,0.158c0,0.041-0.017,0.071-0.05,0.091
		c-0.034,0.019-0.079,0.029-0.136,0.032l-1.941-0.065c-0.059,0-0.11-0.005-0.151-0.014c-0.041-0.01-0.082-0.025-0.125-0.047
		c-0.043-0.021-0.088-0.052-0.135-0.09c-0.047-0.039-0.101-0.088-0.164-0.15c-0.067-0.067-0.117-0.125-0.148-0.171
		c-0.031-0.045-0.045-0.084-0.043-0.115c0-0.03,0.016-0.054,0.045-0.073c0.029-0.017,0.074-0.029,0.134-0.035L349.352,285.939z"/>
	<path d="M349.281,300.238c-0.023,0.024-0.049,0.04-0.074,0.048c-0.029,0.01-0.061,0.006-0.104-0.013
		c-0.041-0.017-0.09-0.05-0.149-0.097c-0.06-0.047-0.134-0.115-0.222-0.203c-0.076-0.077-0.135-0.143-0.179-0.197
		c-0.042-0.055-0.072-0.104-0.088-0.146s-0.02-0.082-0.012-0.123c0.008-0.039,0.021-0.084,0.045-0.131l0.823-1.875
		c0.091-0.215,0.169-0.42,0.231-0.614c0.061-0.195,0.092-0.384,0.092-0.569c0.002-0.183-0.031-0.363-0.103-0.539
		c-0.073-0.175-0.196-0.35-0.369-0.524l-0.512-0.508l-2.435,2.436c-0.022,0.024-0.049,0.038-0.081,0.042
		c-0.031,0.004-0.065-0.003-0.103-0.02c-0.039-0.017-0.086-0.048-0.143-0.088c-0.055-0.041-0.121-0.099-0.193-0.172
		c-0.076-0.074-0.133-0.14-0.172-0.195c-0.043-0.056-0.072-0.105-0.092-0.144c-0.018-0.04-0.025-0.074-0.019-0.104
		c0.004-0.03,0.019-0.056,0.043-0.08l5.297-5.297c0.115-0.114,0.225-0.164,0.331-0.15c0.108,0.016,0.194,0.057,0.262,0.124
		l1.215,1.216c0.145,0.145,0.26,0.268,0.35,0.371c0.089,0.103,0.167,0.198,0.234,0.283c0.184,0.26,0.318,0.515,0.406,0.768
		c0.085,0.251,0.123,0.498,0.112,0.741c-0.012,0.241-0.071,0.473-0.178,0.694c-0.106,0.22-0.258,0.43-0.455,0.628
		c-0.19,0.191-0.391,0.337-0.592,0.437c-0.203,0.1-0.412,0.16-0.626,0.179s-0.432,0.003-0.651-0.047
		c-0.221-0.049-0.446-0.129-0.672-0.239c0.053,0.136,0.086,0.274,0.097,0.414c0.014,0.14,0.01,0.287-0.011,0.442
		c-0.023,0.154-0.063,0.318-0.117,0.493c-0.057,0.174-0.127,0.364-0.213,0.566l-0.746,1.773c-0.067,0.147-0.115,0.248-0.145,0.303
		C349.332,300.177,349.304,300.216,349.281,300.238 M352.156,295.074c0.223-0.224,0.363-0.464,0.418-0.718
		c0.054-0.256-0.004-0.535-0.172-0.839c-0.053-0.094-0.121-0.192-0.205-0.294c-0.084-0.101-0.202-0.227-0.352-0.378l-0.64-0.64
		l-1.928,1.928l0.74,0.742c0.203,0.2,0.401,0.349,0.594,0.447c0.195,0.097,0.383,0.15,0.568,0.161
		c0.184,0.01,0.358-0.021,0.524-0.093C351.865,295.318,352.017,295.212,352.156,295.074"/>
	<path d="M356.684,303.644c-0.348,0.348-0.709,0.606-1.084,0.777c-0.373,0.172-0.75,0.258-1.129,0.256
		c-0.377,0-0.75-0.087-1.119-0.261c-0.366-0.173-0.723-0.433-1.068-0.776c-0.316-0.316-0.557-0.649-0.725-1
		s-0.256-0.709-0.264-1.074c-0.007-0.362,0.073-0.729,0.242-1.096c0.168-0.369,0.426-0.729,0.776-1.08l3.551-3.552
		c0.025-0.023,0.05-0.037,0.082-0.044c0.029-0.005,0.063,0.002,0.103,0.021c0.039,0.019,0.086,0.048,0.141,0.089
		c0.055,0.039,0.121,0.097,0.197,0.174c0.071,0.071,0.129,0.135,0.17,0.192c0.043,0.057,0.072,0.105,0.09,0.144
		c0.017,0.038,0.024,0.072,0.019,0.102c-0.005,0.029-0.021,0.056-0.045,0.079l-3.457,3.458c-0.265,0.264-0.464,0.528-0.597,0.791
		c-0.133,0.262-0.203,0.521-0.212,0.773c-0.011,0.253,0.04,0.5,0.147,0.738c0.104,0.238,0.264,0.466,0.481,0.681
		c0.219,0.222,0.449,0.386,0.687,0.494c0.237,0.106,0.481,0.155,0.731,0.146c0.248-0.012,0.5-0.08,0.754-0.209
		c0.255-0.129,0.512-0.32,0.768-0.576l3.498-3.498c0.023-0.022,0.049-0.039,0.079-0.043c0.03-0.008,0.065,0,0.102,0.02
		c0.041,0.02,0.09,0.049,0.145,0.09c0.056,0.041,0.121,0.1,0.195,0.172c0.07,0.071,0.127,0.135,0.168,0.191
		c0.043,0.056,0.07,0.104,0.089,0.142c0.016,0.038,0.024,0.072,0.02,0.104c-0.006,0.03-0.019,0.058-0.043,0.081L356.684,303.644z"/>
	<path d="M362.412,313.37c-0.023,0.023-0.049,0.039-0.078,0.043c-0.029,0.007-0.066-0.002-0.108-0.021
		c-0.039-0.02-0.087-0.049-0.14-0.089c-0.055-0.039-0.121-0.099-0.196-0.173c-0.071-0.07-0.127-0.135-0.169-0.191
		c-0.043-0.057-0.075-0.105-0.092-0.145c-0.02-0.039-0.025-0.074-0.02-0.104c0.006-0.028,0.02-0.056,0.043-0.079l4.983-4.983
		l-0.009-0.009l-7.021,2.988c-0.029,0.014-0.058,0.018-0.089,0.016s-0.067-0.012-0.11-0.033c-0.041-0.02-0.086-0.051-0.131-0.087
		c-0.05-0.039-0.101-0.089-0.16-0.146c-0.062-0.062-0.113-0.118-0.151-0.169c-0.038-0.05-0.066-0.095-0.087-0.135
		c-0.018-0.039-0.029-0.075-0.029-0.105c-0.002-0.031,0.003-0.059,0.015-0.082l3.076-6.933l-0.004-0.004l-4.982,4.983
		c-0.023,0.022-0.052,0.037-0.079,0.041c-0.03,0.008-0.066,0-0.107-0.021c-0.042-0.021-0.089-0.051-0.146-0.091
		c-0.055-0.041-0.123-0.102-0.197-0.176c-0.073-0.073-0.13-0.137-0.171-0.194c-0.041-0.056-0.071-0.103-0.089-0.144
		c-0.02-0.039-0.025-0.071-0.018-0.101c0.007-0.028,0.023-0.054,0.047-0.077l5.26-5.261c0.126-0.125,0.246-0.181,0.365-0.167
		c0.119,0.012,0.218,0.059,0.3,0.141l0.466,0.467c0.096,0.096,0.171,0.188,0.225,0.277c0.054,0.09,0.089,0.18,0.105,0.273
		c0.016,0.092,0.011,0.185-0.012,0.281c-0.023,0.094-0.059,0.193-0.113,0.301l-2.508,5.779l0.024,0.021l5.832-2.427
		c0.12-0.056,0.231-0.095,0.333-0.118c0.101-0.023,0.192-0.03,0.276-0.02c0.082,0.01,0.162,0.033,0.232,0.074
		c0.075,0.041,0.149,0.1,0.224,0.174l0.489,0.489c0.045,0.046,0.081,0.095,0.108,0.148c0.029,0.054,0.041,0.108,0.043,0.165
		c0,0.057-0.014,0.115-0.038,0.176c-0.025,0.061-0.068,0.122-0.13,0.184L362.412,313.37z"/>
	<path d="M366.743,317.699c-0.024,0.022-0.052,0.038-0.081,0.043c-0.029,0.007-0.065,0-0.104-0.019
		c-0.041-0.02-0.087-0.049-0.143-0.09c-0.056-0.041-0.122-0.1-0.194-0.174c-0.073-0.07-0.129-0.135-0.172-0.191
		c-0.043-0.059-0.073-0.107-0.092-0.146s-0.026-0.074-0.02-0.104c0.006-0.028,0.02-0.056,0.044-0.079l5.491-5.491
		c0.024-0.024,0.053-0.037,0.083-0.042c0.031-0.005,0.067,0.004,0.107,0.023c0.042,0.021,0.092,0.053,0.146,0.094
		c0.057,0.042,0.12,0.095,0.187,0.163c0.073,0.073,0.132,0.139,0.173,0.194c0.041,0.058,0.07,0.104,0.09,0.145
		c0.018,0.04,0.025,0.074,0.02,0.104c-0.007,0.029-0.022,0.057-0.046,0.08L366.743,317.699z"/>
	<path d="M372.787,323.345c-0.06,0.06-0.119,0.101-0.182,0.121c-0.06,0.021-0.121,0.029-0.179,0.024
		c-0.058-0.006-0.114-0.022-0.163-0.05c-0.052-0.029-0.099-0.062-0.138-0.102l-0.251-0.252c-0.079-0.078-0.141-0.156-0.185-0.232
		c-0.044-0.075-0.069-0.161-0.08-0.258c-0.011-0.096-0.006-0.207,0.014-0.334c0.021-0.127,0.059-0.278,0.114-0.453l1.509-5
		c0.076-0.258,0.162-0.526,0.252-0.805c0.092-0.275,0.184-0.541,0.277-0.796l-0.008-0.009c-0.207,0.219-0.417,0.439-0.636,0.664
		c-0.219,0.225-0.436,0.445-0.655,0.663l-3.453,3.452c-0.021,0.021-0.047,0.035-0.078,0.041c-0.031,0.008-0.068,0.002-0.106-0.019
		c-0.04-0.018-0.091-0.049-0.145-0.09c-0.055-0.04-0.122-0.098-0.196-0.173c-0.072-0.074-0.131-0.141-0.172-0.194
		c-0.041-0.057-0.07-0.103-0.088-0.142c-0.017-0.038-0.023-0.074-0.015-0.104c0.005-0.033,0.019-0.059,0.041-0.08l5.278-5.278
		c0.118-0.118,0.235-0.168,0.352-0.152c0.118,0.017,0.215,0.065,0.295,0.144l0.373,0.375c0.09,0.088,0.156,0.17,0.201,0.244
		c0.045,0.072,0.073,0.15,0.087,0.231c0.012,0.082,0.01,0.175-0.006,0.278c-0.016,0.105-0.045,0.228-0.088,0.367l-1.17,3.854
		c-0.07,0.234-0.141,0.465-0.211,0.688c-0.067,0.223-0.137,0.44-0.207,0.653c-0.07,0.213-0.139,0.423-0.207,0.63
		c-0.067,0.206-0.136,0.413-0.206,0.62l0.005,0.005c0.226-0.24,0.465-0.486,0.716-0.738c0.25-0.254,0.493-0.498,0.725-0.73
		l3.104-3.105c0.021-0.02,0.046-0.031,0.078-0.037c0.029-0.004,0.064,0,0.109,0.017c0.041,0.017,0.09,0.045,0.143,0.088
		c0.054,0.042,0.121,0.103,0.199,0.181c0.067,0.067,0.124,0.129,0.168,0.186c0.043,0.056,0.073,0.105,0.088,0.146
		c0.015,0.041,0.019,0.075,0.014,0.106c-0.004,0.03-0.018,0.055-0.038,0.076L372.787,323.345z"/>
	<path d="M382.973,323.372c-0.055,0.057-0.107,0.102-0.154,0.137c-0.047,0.035-0.09,0.06-0.127,0.071
		c-0.039,0.013-0.074,0.015-0.106,0.006c-0.031-0.007-0.058-0.022-0.082-0.046l-1.609-1.609l-4.96,4.961
		c-0.024,0.023-0.05,0.039-0.079,0.043c-0.029,0.006-0.065,0-0.105-0.02s-0.088-0.049-0.144-0.09
		c-0.058-0.042-0.122-0.1-0.195-0.173c-0.07-0.07-0.127-0.134-0.169-0.192c-0.043-0.057-0.073-0.105-0.094-0.146
		c-0.02-0.039-0.026-0.073-0.02-0.103c0.006-0.03,0.02-0.057,0.045-0.081l4.961-4.96l-1.609-1.61
		c-0.024-0.022-0.039-0.049-0.047-0.082c-0.006-0.029-0.004-0.063,0.008-0.101c0.013-0.037,0.037-0.08,0.072-0.129
		c0.032-0.048,0.079-0.101,0.134-0.157c0.055-0.055,0.11-0.101,0.16-0.136c0.05-0.036,0.095-0.062,0.132-0.075
		c0.04-0.015,0.074-0.019,0.105-0.012c0.03,0.008,0.057,0.023,0.08,0.047l3.981,3.979c0.023,0.024,0.039,0.052,0.047,0.082
		c0.007,0.031,0.004,0.066-0.01,0.106c-0.014,0.04-0.037,0.083-0.076,0.133C383.077,323.263,383.03,323.315,382.973,323.372"/>
	<path d="M381.904,332.462c-0.054,0.054-0.103,0.098-0.148,0.131c-0.047,0.033-0.09,0.057-0.131,0.068s-0.077,0.014-0.11,0.008
		c-0.029-0.009-0.057-0.023-0.081-0.047l-2.745-2.746c-0.067-0.067-0.109-0.154-0.125-0.261c-0.014-0.106,0.037-0.217,0.152-0.332
		l5.102-5.102c0.113-0.115,0.226-0.165,0.332-0.151c0.105,0.016,0.192,0.057,0.26,0.125l2.715,2.714
		c0.023,0.024,0.041,0.052,0.046,0.082c0.006,0.031,0.004,0.065-0.011,0.104c-0.015,0.039-0.039,0.08-0.07,0.128
		c-0.033,0.047-0.079,0.1-0.137,0.159c-0.055,0.053-0.104,0.096-0.151,0.127c-0.047,0.033-0.089,0.057-0.125,0.07
		c-0.038,0.012-0.072,0.016-0.103,0.008c-0.031-0.006-0.059-0.022-0.082-0.045l-2.236-2.237l-1.795,1.794l1.918,1.918
		c0.024,0.023,0.039,0.052,0.043,0.085c0.007,0.032,0.005,0.067-0.005,0.104c-0.011,0.036-0.034,0.078-0.068,0.125
		c-0.037,0.047-0.082,0.1-0.138,0.155c-0.052,0.054-0.102,0.095-0.145,0.128c-0.047,0.033-0.086,0.053-0.123,0.064
		c-0.037,0.01-0.069,0.011-0.099,0.003c-0.03-0.011-0.056-0.026-0.081-0.05l-1.916-1.918l-2.048,2.047l2.267,2.268
		c0.025,0.023,0.039,0.051,0.047,0.082s0.007,0.066-0.004,0.105c-0.012,0.041-0.033,0.084-0.066,0.129
		C382.008,332.352,381.963,332.403,381.904,332.462"/>
	<path d="M386.758,337.714c-0.023,0.024-0.05,0.041-0.074,0.049c-0.027,0.01-0.062,0.006-0.104-0.012
		c-0.04-0.019-0.09-0.051-0.15-0.098c-0.059-0.048-0.131-0.115-0.221-0.204c-0.076-0.076-0.137-0.142-0.18-0.196
		c-0.041-0.055-0.07-0.104-0.087-0.146c-0.016-0.042-0.021-0.083-0.012-0.123c0.007-0.04,0.021-0.084,0.045-0.13l0.822-1.875
		c0.092-0.216,0.17-0.421,0.231-0.614c0.062-0.195,0.093-0.385,0.093-0.568c0.002-0.185-0.031-0.365-0.105-0.539
		c-0.072-0.176-0.196-0.352-0.369-0.524l-0.509-0.509l-2.436,2.436c-0.022,0.023-0.049,0.038-0.081,0.042
		c-0.031,0.005-0.064-0.002-0.103-0.021c-0.039-0.017-0.086-0.047-0.143-0.088c-0.056-0.041-0.121-0.099-0.193-0.172
		c-0.076-0.074-0.133-0.139-0.173-0.193c-0.042-0.057-0.071-0.105-0.091-0.145c-0.019-0.041-0.025-0.074-0.019-0.104
		c0.004-0.029,0.019-0.056,0.043-0.08l5.296-5.296c0.116-0.115,0.226-0.165,0.334-0.15c0.105,0.016,0.191,0.057,0.26,0.124
		l1.215,1.216c0.145,0.145,0.262,0.268,0.35,0.372c0.089,0.103,0.168,0.197,0.234,0.282c0.183,0.259,0.318,0.516,0.406,0.768
		c0.086,0.252,0.123,0.498,0.112,0.739c-0.012,0.243-0.071,0.474-0.178,0.695c-0.106,0.22-0.258,0.43-0.455,0.628
		c-0.191,0.191-0.388,0.338-0.593,0.438c-0.202,0.101-0.411,0.16-0.624,0.178c-0.215,0.02-0.432,0.005-0.654-0.045
		c-0.219-0.051-0.445-0.129-0.671-0.239c0.054,0.136,0.087,0.274,0.099,0.414c0.014,0.14,0.009,0.286-0.012,0.442
		c-0.024,0.153-0.061,0.318-0.118,0.491c-0.057,0.175-0.126,0.363-0.212,0.566l-0.746,1.774c-0.067,0.146-0.114,0.248-0.145,0.301
		C386.809,337.653,386.781,337.691,386.758,337.714 M389.633,332.552c0.225-0.225,0.361-0.465,0.418-0.72
		c0.053-0.255-0.004-0.534-0.172-0.838c-0.052-0.094-0.121-0.192-0.205-0.294s-0.201-0.227-0.353-0.378l-0.639-0.642l-1.928,1.929
		l0.74,0.742c0.203,0.2,0.401,0.349,0.595,0.448c0.194,0.096,0.384,0.149,0.569,0.16c0.182,0.01,0.358-0.021,0.521-0.094
		C389.342,332.796,389.494,332.689,389.633,332.552"/>
	<path d="M392.381,342.941c-0.058,0.06-0.118,0.099-0.18,0.121c-0.06,0.021-0.119,0.028-0.178,0.022s-0.115-0.021-0.165-0.05
		c-0.051-0.028-0.097-0.061-0.137-0.101l-0.25-0.251c-0.08-0.079-0.143-0.157-0.185-0.232c-0.043-0.075-0.071-0.161-0.081-0.259
		c-0.012-0.096-0.006-0.208,0.015-0.334c0.02-0.127,0.057-0.277,0.112-0.453l1.51-5c0.076-0.258,0.16-0.527,0.252-0.803
		c0.092-0.278,0.185-0.543,0.279-0.796l-0.008-0.011c-0.207,0.219-0.42,0.44-0.638,0.664c-0.217,0.225-0.436,0.445-0.655,0.664
		l-3.452,3.452c-0.02,0.021-0.048,0.034-0.079,0.041c-0.032,0.007-0.067,0-0.109-0.019c-0.037-0.02-0.084-0.049-0.142-0.09
		c-0.055-0.041-0.12-0.099-0.196-0.174c-0.072-0.074-0.133-0.14-0.172-0.194c-0.041-0.056-0.07-0.104-0.088-0.142
		c-0.017-0.039-0.021-0.074-0.016-0.104c0.006-0.032,0.02-0.058,0.042-0.078l5.278-5.28c0.118-0.117,0.235-0.168,0.352-0.15
		c0.118,0.016,0.217,0.064,0.295,0.144l0.373,0.374c0.089,0.088,0.156,0.17,0.201,0.244c0.044,0.072,0.073,0.15,0.086,0.232
		s0.011,0.174-0.005,0.277c-0.016,0.105-0.045,0.227-0.088,0.367l-1.17,3.854c-0.071,0.234-0.14,0.465-0.211,0.688
		c-0.067,0.223-0.137,0.441-0.207,0.652c-0.07,0.214-0.139,0.424-0.207,0.631c-0.067,0.207-0.135,0.414-0.206,0.619l0.005,0.006
		c0.226-0.239,0.464-0.486,0.716-0.739c0.25-0.253,0.493-0.497,0.724-0.729l3.106-3.104c0.02-0.021,0.045-0.033,0.075-0.038
		c0.031-0.004,0.065,0,0.111,0.018c0.041,0.016,0.09,0.045,0.143,0.088c0.054,0.041,0.121,0.102,0.199,0.18
		c0.068,0.068,0.125,0.13,0.168,0.188c0.044,0.055,0.073,0.103,0.088,0.145c0.014,0.041,0.019,0.076,0.014,0.107
		c-0.005,0.029-0.018,0.055-0.038,0.074L392.381,342.941z"/>
	<path d="M398.143,348.792c-0.041,0.088-0.081,0.152-0.12,0.193c-0.038,0.041-0.078,0.061-0.125,0.057
		c-0.043-0.003-0.094-0.027-0.156-0.076c-0.06-0.049-0.135-0.119-0.226-0.211c-0.094-0.091-0.163-0.166-0.213-0.226
		c-0.051-0.06-0.084-0.106-0.102-0.146c-0.017-0.039-0.023-0.072-0.019-0.104s0.013-0.066,0.028-0.104l0.901-1.885l-2.379-2.379
		l-1.841,0.907c-0.037,0.019-0.071,0.028-0.106,0.033c-0.033,0.004-0.072-0.002-0.111-0.015c-0.041-0.015-0.092-0.045-0.149-0.09
		c-0.058-0.048-0.128-0.111-0.211-0.193c-0.086-0.086-0.15-0.16-0.199-0.221c-0.046-0.062-0.07-0.115-0.07-0.158
		c-0.003-0.043,0.017-0.082,0.058-0.121c0.04-0.039,0.105-0.079,0.194-0.12l7.234-3.396c0.043-0.021,0.086-0.031,0.126-0.033
		c0.04,0,0.083,0.01,0.132,0.035c0.047,0.025,0.104,0.064,0.166,0.118c0.063,0.054,0.137,0.123,0.225,0.211
		c0.095,0.095,0.171,0.175,0.226,0.241c0.061,0.066,0.102,0.125,0.128,0.176c0.026,0.049,0.039,0.096,0.037,0.139
		c0,0.043-0.011,0.086-0.032,0.131L398.143,348.792z M400.372,341.636l-0.005-0.002l-3.838,1.865l1.99,1.989L400.372,341.636z"/>
	<path d="M403.391,352.959c-0.047,0.047-0.09,0.088-0.127,0.121c-0.039,0.03-0.076,0.058-0.11,0.077
		c-0.034,0.018-0.066,0.031-0.099,0.042c-0.033,0.008-0.078,0.012-0.137,0.013c-0.058,0-0.165-0.018-0.32-0.051
		c-0.156-0.034-0.332-0.094-0.529-0.176c-0.198-0.082-0.406-0.194-0.627-0.334c-0.221-0.143-0.44-0.321-0.655-0.536
		c-0.371-0.372-0.645-0.769-0.822-1.192c-0.174-0.422-0.246-0.859-0.215-1.312c0.032-0.452,0.166-0.913,0.409-1.381
		c0.243-0.469,0.593-0.936,1.056-1.398c0.476-0.475,0.96-0.835,1.453-1.085c0.494-0.249,0.981-0.392,1.459-0.429
		c0.479-0.037,0.942,0.031,1.385,0.203s0.852,0.446,1.227,0.82c0.166,0.165,0.31,0.342,0.434,0.528
		c0.124,0.187,0.232,0.37,0.318,0.55c0.085,0.18,0.148,0.354,0.189,0.518c0.041,0.166,0.062,0.287,0.062,0.367
		s-0.003,0.135-0.013,0.168c-0.01,0.032-0.024,0.066-0.044,0.102c-0.021,0.035-0.048,0.074-0.082,0.117
		c-0.034,0.043-0.077,0.091-0.13,0.144c-0.061,0.06-0.111,0.106-0.162,0.142c-0.045,0.035-0.088,0.062-0.129,0.078
		c-0.038,0.016-0.074,0.022-0.103,0.02c-0.03-0.004-0.057-0.018-0.081-0.041c-0.041-0.041-0.07-0.127-0.086-0.26
		c-0.017-0.131-0.048-0.291-0.097-0.477c-0.049-0.186-0.127-0.393-0.236-0.617c-0.11-0.224-0.282-0.453-0.516-0.688
		c-0.256-0.256-0.539-0.436-0.848-0.544c-0.311-0.107-0.64-0.136-0.984-0.087c-0.348,0.05-0.703,0.176-1.069,0.379
		s-0.73,0.488-1.097,0.853c-0.362,0.363-0.645,0.722-0.844,1.079c-0.201,0.357-0.32,0.703-0.36,1.037
		c-0.04,0.334-0.003,0.656,0.115,0.964c0.118,0.31,0.311,0.599,0.581,0.869c0.229,0.229,0.455,0.399,0.682,0.515
		c0.225,0.113,0.433,0.196,0.623,0.246c0.189,0.051,0.35,0.088,0.484,0.108c0.133,0.021,0.221,0.053,0.266,0.098
		c0.021,0.021,0.033,0.043,0.04,0.067c0.007,0.023,0.001,0.052-0.015,0.086c-0.016,0.033-0.045,0.074-0.084,0.124
		C403.512,352.834,403.458,352.892,403.391,352.959"/>
	<path d="M404.467,355.423c-0.024,0.023-0.052,0.038-0.081,0.044c-0.029,0.006-0.064-0.001-0.103-0.021
		c-0.041-0.019-0.089-0.049-0.144-0.09c-0.057-0.041-0.121-0.099-0.195-0.172c-0.071-0.07-0.129-0.136-0.17-0.193
		c-0.043-0.057-0.075-0.106-0.092-0.146c-0.02-0.04-0.028-0.075-0.022-0.104c0.007-0.028,0.022-0.057,0.045-0.079l5.492-5.491
		c0.023-0.023,0.05-0.038,0.082-0.042c0.031-0.005,0.067,0.003,0.108,0.024c0.041,0.021,0.09,0.052,0.146,0.093
		c0.055,0.041,0.118,0.096,0.186,0.163c0.072,0.074,0.131,0.139,0.172,0.195s0.072,0.104,0.091,0.145
		c0.018,0.039,0.025,0.072,0.02,0.104c-0.006,0.028-0.021,0.055-0.045,0.078L404.467,355.423z"/>
	<path d="M413.591,358.925c-0.463,0.463-0.935,0.824-1.415,1.088c-0.479,0.263-0.959,0.414-1.437,0.459
		c-0.478,0.044-0.95-0.027-1.416-0.215c-0.468-0.188-0.92-0.498-1.355-0.935c-0.431-0.43-0.739-0.866-0.924-1.31
		c-0.187-0.441-0.259-0.887-0.219-1.338c0.04-0.448,0.19-0.903,0.452-1.367c0.263-0.463,0.629-0.93,1.101-1.402
		c0.452-0.451,0.916-0.805,1.393-1.064s0.954-0.409,1.43-0.449c0.475-0.039,0.949,0.033,1.416,0.221
		c0.467,0.188,0.918,0.499,1.355,0.936c0.42,0.422,0.725,0.853,0.91,1.291c0.186,0.439,0.261,0.885,0.227,1.336
		c-0.036,0.451-0.184,0.906-0.439,1.365C414.415,358.001,414.057,358.462,413.591,358.925 M412.732,358.173
		c0.324-0.325,0.598-0.654,0.818-0.99c0.222-0.336,0.368-0.674,0.44-1.012c0.07-0.34,0.053-0.678-0.057-1.018
		c-0.11-0.338-0.328-0.672-0.658-1.002c-0.328-0.329-0.67-0.544-1.016-0.645c-0.347-0.1-0.695-0.116-1.041-0.049
		c-0.345,0.065-0.687,0.207-1.023,0.422s-0.655,0.475-0.959,0.777c-0.336,0.336-0.617,0.674-0.844,1.014
		c-0.226,0.338-0.377,0.677-0.45,1.014c-0.071,0.338-0.053,0.675,0.056,1.01c0.109,0.336,0.33,0.671,0.665,1.007
		c0.333,0.332,0.674,0.55,1.026,0.654c0.349,0.101,0.699,0.118,1.049,0.044c0.348-0.072,0.69-0.217,1.027-0.436
		C412.102,358.747,412.423,358.482,412.732,358.173"/>
	<path d="M416.506,367.064c-0.061,0.06-0.119,0.101-0.181,0.121c-0.061,0.021-0.12,0.028-0.18,0.024
		c-0.057-0.006-0.114-0.022-0.163-0.051c-0.052-0.029-0.097-0.062-0.138-0.102l-0.251-0.251c-0.079-0.079-0.14-0.157-0.185-0.233
		c-0.043-0.074-0.07-0.16-0.08-0.257c-0.01-0.096-0.006-0.208,0.014-0.335c0.021-0.126,0.059-0.277,0.115-0.453l1.508-4.999
		c0.077-0.259,0.161-0.528,0.252-0.805c0.092-0.277,0.185-0.542,0.279-0.796l-0.01-0.01c-0.207,0.22-0.417,0.44-0.636,0.664
		c-0.217,0.224-0.436,0.445-0.655,0.664l-3.453,3.452c-0.019,0.021-0.047,0.035-0.078,0.041c-0.031,0.007-0.066,0-0.107-0.019
		c-0.039-0.02-0.088-0.049-0.145-0.09c-0.054-0.041-0.119-0.1-0.194-0.174c-0.073-0.074-0.132-0.14-0.173-0.194
		c-0.041-0.056-0.07-0.103-0.088-0.142c-0.017-0.037-0.022-0.074-0.015-0.104c0.005-0.032,0.019-0.058,0.041-0.078l5.279-5.278
		c0.119-0.119,0.234-0.17,0.352-0.152c0.117,0.016,0.214,0.064,0.292,0.143l0.375,0.375c0.09,0.088,0.155,0.169,0.2,0.244
		c0.046,0.073,0.076,0.15,0.088,0.232c0.011,0.08,0.011,0.174-0.006,0.277c-0.015,0.105-0.045,0.227-0.087,0.367l-1.171,3.854
		c-0.07,0.235-0.141,0.465-0.209,0.688c-0.069,0.223-0.14,0.441-0.209,0.652c-0.07,0.214-0.139,0.424-0.205,0.631
		c-0.069,0.207-0.137,0.414-0.209,0.619l0.006,0.007c0.226-0.24,0.466-0.486,0.716-0.739s0.493-0.497,0.725-0.73l3.104-3.104
		c0.021-0.021,0.046-0.033,0.076-0.038c0.031-0.005,0.066-0.001,0.109,0.017c0.043,0.016,0.092,0.045,0.147,0.086
		c0.052,0.043,0.119,0.104,0.197,0.182c0.068,0.068,0.125,0.13,0.168,0.186c0.045,0.057,0.072,0.104,0.088,0.146
		c0.015,0.042,0.019,0.077,0.015,0.108c-0.005,0.029-0.017,0.055-0.039,0.076L416.506,367.064z"/>
	<path d="M422.266,372.914c-0.041,0.089-0.081,0.153-0.12,0.194c-0.037,0.041-0.08,0.061-0.123,0.058
		c-0.046-0.003-0.097-0.029-0.158-0.077c-0.058-0.049-0.135-0.119-0.226-0.21c-0.091-0.091-0.163-0.166-0.213-0.226
		c-0.05-0.06-0.084-0.107-0.102-0.146c-0.017-0.04-0.023-0.074-0.019-0.104c0.005-0.03,0.013-0.065,0.029-0.104l0.901-1.885
		l-2.38-2.379l-1.842,0.906c-0.035,0.019-0.07,0.03-0.105,0.034c-0.033,0.005-0.07-0.002-0.111-0.016
		c-0.043-0.015-0.092-0.044-0.149-0.091c-0.058-0.045-0.129-0.11-0.211-0.192c-0.085-0.085-0.151-0.159-0.198-0.221
		c-0.048-0.062-0.071-0.114-0.073-0.157c0-0.042,0.018-0.082,0.06-0.121c0.04-0.039,0.106-0.079,0.194-0.12l7.234-3.396
		c0.044-0.021,0.086-0.031,0.125-0.033c0.04,0,0.086,0.011,0.133,0.036c0.049,0.024,0.104,0.063,0.166,0.118
		c0.063,0.052,0.137,0.123,0.226,0.211c0.094,0.095,0.17,0.175,0.227,0.242c0.058,0.065,0.1,0.123,0.125,0.174
		c0.028,0.05,0.041,0.097,0.039,0.139c-0.002,0.043-0.011,0.086-0.033,0.131L422.266,372.914z M424.496,365.76l-0.006-0.004
		l-3.838,1.864l1.99,1.992L424.496,365.76z"/>
	<path d="M426.248,376.773c-0.058,0.06-0.108,0.104-0.154,0.14c-0.046,0.033-0.09,0.059-0.133,0.072
		c-0.04,0.016-0.076,0.02-0.109,0.014c-0.033-0.006-0.062-0.021-0.088-0.049l-2.53-2.529c-0.067-0.067-0.108-0.153-0.123-0.26
		c-0.015-0.106,0.035-0.218,0.151-0.332l5.295-5.298c0.023-0.022,0.05-0.038,0.08-0.044c0.031-0.006,0.064,0.002,0.105,0.021
		c0.039,0.019,0.088,0.049,0.146,0.092c0.055,0.043,0.122,0.1,0.192,0.171c0.072,0.073,0.131,0.138,0.172,0.194
		c0.042,0.057,0.071,0.104,0.09,0.144c0.019,0.039,0.027,0.074,0.021,0.103c-0.008,0.031-0.021,0.058-0.045,0.082l-4.947,4.946
		l2.051,2.052c0.025,0.026,0.043,0.056,0.049,0.088c0.006,0.033,0.004,0.068-0.008,0.106c-0.013,0.038-0.037,0.081-0.071,0.128
		C426.357,376.663,426.31,376.714,426.248,376.773"/>
	<path d="M319.223,285.465c0.559-0.682,0.797-1.371,0.711-2.066s-0.52-1.433-1.301-2.214c-1.439-1.44-2.654-1.667-3.64-0.68
		c-0.354,0.353-0.499,0.798-0.438,1.335c0.063,0.537,0.342,1.213,0.844,2.031c0.597,0.963,1.104,1.811,1.519,2.542
		c0.417,0.733,0.757,1.44,1.028,2.123c0.158,0.378,0.274,0.767,0.347,1.171c0.075,0.403,0.071,0.808-0.008,1.216
		c-0.08,0.408-0.24,0.832-0.482,1.271c-0.244,0.438-0.609,0.902-1.098,1.388c-0.584,0.585-1.223,0.981-1.918,1.188
		c-0.693,0.206-1.403,0.259-2.128,0.154c-0.724-0.103-1.45-0.353-2.174-0.749c-0.724-0.396-1.397-0.903-2.018-1.524
		c-1.766-1.767-2.75-3.439-2.951-5.016c-0.201-1.576,0.344-3.06,1.635-4.448l2.447,2.448c-0.607,0.633-0.845,1.376-0.711,2.229
		c0.133,0.852,0.572,1.65,1.315,2.393c0.804,0.804,1.56,1.267,2.265,1.39c0.706,0.122,1.308-0.067,1.807-0.564
		c0.193-0.195,0.348-0.4,0.465-0.613c0.115-0.213,0.17-0.456,0.162-0.73c-0.007-0.274-0.08-0.585-0.221-0.933
		c-0.141-0.347-0.363-0.759-0.67-1.236c-0.732-1.122-1.338-2.122-1.815-3c-0.478-0.878-0.786-1.687-0.929-2.424
		c-0.141-0.738-0.104-1.423,0.115-2.056c0.217-0.633,0.654-1.278,1.313-1.935c0.498-0.498,1.056-0.875,1.679-1.129
		c0.62-0.255,1.28-0.354,1.981-0.299c0.699,0.056,1.422,0.268,2.166,0.635c0.744,0.367,1.494,0.929,2.252,1.685
		c0.73,0.732,1.295,1.485,1.693,2.26c0.397,0.774,0.633,1.546,0.705,2.313c0.074,0.769-0.017,1.515-0.281,2.24
		c-0.262,0.726-0.679,1.398-1.25,2.02L319.223,285.465z"/>
	<path d="M319.263,303.446c-1.876-1.875-2.767-3.863-2.677-5.964c0.091-2.101,1.167-4.18,3.224-6.239
		c1.025-1.023,2.072-1.814,3.144-2.375c1.071-0.56,2.14-0.874,3.206-0.941c1.066-0.067,2.105,0.11,3.125,0.53
		c1.016,0.421,1.993,1.099,2.931,2.038c0.925,0.925,1.602,1.9,2.028,2.922c0.425,1.023,0.597,2.065,0.511,3.124
		c-0.086,1.06-0.411,2.129-0.976,3.207c-0.567,1.079-1.367,2.134-2.403,3.17c-2.095,2.095-4.169,3.175-6.22,3.242
		C323.104,306.228,321.138,305.323,319.263,303.446 M321.439,301.272c0.449,0.451,0.957,0.795,1.523,1.033
		c0.568,0.237,1.166,0.338,1.8,0.301c0.634-0.037,1.296-0.23,1.991-0.584c0.694-0.354,1.401-0.889,2.12-1.607
		c1.437-1.438,2.248-2.808,2.429-4.111c0.184-1.303-0.261-2.491-1.333-3.562c-1.072-1.073-2.266-1.524-3.581-1.353
		c-1.316,0.171-2.691,0.975-4.129,2.412c-1.437,1.437-2.198,2.777-2.283,4.02C319.891,299.063,320.376,300.213,321.439,301.272"/>
	<polygon points="333.826,306.937 328.709,312.053 326.169,309.513 338.281,297.399 346.924,306.042 344.823,308.144 
		338.721,302.041 335.963,304.799 341.297,310.133 339.16,312.271 	"/>
	<polygon points="338.611,321.954 348.624,311.942 344.968,308.288 347.07,306.188 356.936,316.054 354.836,318.155 
		351.163,314.482 341.15,324.495 	"/>
	<polygon points="354.579,337.923 360.59,328.148 350.779,334.122 348.403,331.747 357.1,316.182 359.803,318.884 353.937,328.732 
		363.475,322.558 366.144,325.225 360.133,334.927 369.961,329.044 372.557,331.638 357.026,340.37 	"/>
	<path d="M366.087,349.433l1.739-3.271l-4.477-4.476l-3.364,1.645l-2.687-2.686l16.463-7.802l2.942,2.942l-7.856,16.406
		L366.087,349.433z M372.483,337.009l-0.019-0.019l-6.394,3.289l3.088,3.087L372.483,337.009z"/>
	<path d="M376.392,359.737l3.125-3.124c0.584-0.585,0.867-1.136,0.85-1.654c-0.02-0.519-0.395-1.142-1.123-1.873l-2.705-2.704
		l-4.751,4.751l-2.466-2.467l12.131-12.131l6.156,6.157c0.563,0.56,0.982,1.156,1.262,1.789c0.281,0.634,0.429,1.269,0.448,1.908
		c0.02,0.639-0.099,1.264-0.354,1.871c-0.254,0.608-0.631,1.162-1.129,1.66c-0.659,0.657-1.393,1.083-2.211,1.276
		c-0.815,0.194-1.618,0.103-2.409-0.275c0.364,0.707,0.485,1.349,0.356,1.929s-0.547,1.223-1.254,1.93l-3.441,3.441L376.392,359.737
		z M381.819,345.103l-3.215,3.215l3.179,3.18c0.681,0.682,1.314,1.011,1.896,0.989c0.582-0.023,1.106-0.265,1.565-0.726
		c0.472-0.472,0.723-0.996,0.751-1.574c0.029-0.575-0.273-1.182-0.906-1.814L381.819,345.103z"/>
	<polygon points="379.791,363.136 391.905,351.022 400.82,359.938 398.719,362.038 392.27,355.589 389.676,358.185 395.613,364.121 
		393.477,366.259 387.539,360.321 384.414,363.445 391.156,370.187 389,372.343 	"/>
	<polygon points="393.932,377.276 406.062,365.146 408.603,367.685 398.682,377.604 404.691,383.614 402.482,385.826 	"/>
	
		<rect x="401.75" y="379.746" transform="matrix(-0.7071 0.7071 -0.7071 -0.7071 970.2658 361.2077)" width="17.156" height="3.591"/>
	<polygon points="410.1,393.443 418.12,377.201 420.825,379.905 414.96,391.068 426.104,385.187 428.734,387.816 412.494,395.837 	
		"/>
	<path d="M424.167,407.512l3.124-3.125c0.584-0.584,0.868-1.136,0.851-1.653c-0.021-0.518-0.394-1.143-1.124-1.873l-2.705-2.704
		l-4.75,4.75l-2.467-2.466l12.133-12.131l6.154,6.156c0.563,0.561,0.982,1.156,1.262,1.789c0.282,0.635,0.431,1.271,0.45,1.91
		c0.019,0.639-0.099,1.262-0.355,1.871c-0.255,0.607-0.631,1.16-1.13,1.659c-0.657,0.657-1.393,1.082-2.209,1.277
		c-0.815,0.194-1.618,0.103-2.409-0.277c0.365,0.707,0.484,1.351,0.356,1.929c-0.13,0.58-0.549,1.224-1.256,1.931l-3.44,3.44
		L424.167,407.512z M429.594,392.876l-3.217,3.215l3.18,3.181c0.683,0.683,1.315,1.011,1.896,0.988
		c0.584-0.022,1.107-0.263,1.566-0.724c0.473-0.472,0.722-0.996,0.753-1.574c0.027-0.576-0.276-1.183-0.908-1.815L429.594,392.876z"
		/>
	<polygon points="427.566,410.909 439.678,398.796 448.595,407.712 446.493,409.813 440.045,403.363 437.449,405.958 
		443.386,411.896 441.25,414.033 435.312,408.095 432.188,411.22 438.929,417.961 436.773,420.117 	"/>
	<path d="M469.041,393.403l-2.195,2.197c-0.256-0.377-0.529-0.71-0.816-0.997c-0.695-0.694-1.434-1.071-2.219-1.132
		c-1.104-0.074-2.25,0.484-3.445,1.678c-1.553,1.555-2.305,3.159-2.252,4.812c0.053,1.654,0.963,3.787,2.729,6.398l2.491,3.715
		l6.729-6.728l1.947,2.9l-6.727,6.728l18.664,27.633c2.159,3.217,3.096,6.344,2.809,9.379c-0.289,3.035-1.781,5.904-4.484,8.607
		l-1.949-2.492c1.586-1.586,2.341-3.186,2.265-4.803c-0.104-1.705-1.042-3.879-2.808-6.521l-18.664-27.636l-3.987,3.986
		l-1.948-2.899l3.986-3.986l-2.424-3.602c-2.174-3.23-3.109-6.357-2.808-9.378c0.287-3.035,1.781-5.903,4.485-8.608
		c1.011-1.011,2.095-1.912,3.251-2.705c1.154-0.793,2.391-1.467,3.703-2.027L469.041,393.403z"/>
	<path d="M468.408,390.052c-0.559-0.831-0.793-1.804-0.703-2.923c0.091-1.116,0.49-2.03,1.201-2.739
		c0.695-0.695,1.503-0.99,2.424-0.885c0.711,0.076,1.307,0.355,1.79,0.839c0.165,0.166,0.31,0.354,0.431,0.566
		c0.573,0.845,0.811,1.815,0.713,2.911c-0.1,1.094-0.502,1.996-1.212,2.705c-0.71,0.711-1.519,1.02-2.424,0.93
		c-0.681-0.075-1.261-0.354-1.743-0.838C468.718,390.452,468.559,390.265,468.408,390.052 M497.221,419.544l3.941-3.941l1.947,2.854
		l-8.108,8.108l-17.464-25.845l-3.986,3.987l-1.949-2.9l8.154-8.154L497.221,419.544z"/>
	<path d="M506.666,412.228l-4.529-6.705l2.4-2.4c0.377,0.498,0.764,0.942,1.154,1.336c1.18,1.178,2.439,1.774,3.783,1.789
		c1.782,0,3.715-1.041,5.799-3.127c1.873-1.871,3.016-3.718,3.432-5.537c0.416-1.818,0.088-3.537-0.984-5.152
		c-0.228-0.316-0.461-0.598-0.703-0.839c-0.709-0.709-1.525-1.087-2.445-1.132c-1.24-0.061-3.307,0.619-6.207,2.039l-3.85,1.812
		c-2.599,1.269-4.766,1.774-6.502,1.517c-1.223-0.194-2.326-0.785-3.309-1.767c-0.393-0.392-0.777-0.853-1.153-1.381
		c-1.768-2.644-2.349-5.519-1.745-8.63c0.605-3.111,2.335-6.094,5.188-8.947c1.268-1.27,2.736-2.404,4.404-3.41
		c1.67-1.004,3.508-1.876,5.518-2.615l4.235,6.274l-2.401,2.401c-0.287-0.408-0.581-0.764-0.883-1.065
		c-1.102-1.103-2.334-1.653-3.693-1.653c-1.721-0.029-3.466,0.838-5.232,2.604c-1.751,1.753-2.826,3.446-3.229,5.086
		c-0.4,1.638-0.102,3.198,0.896,4.677c0.198,0.318,0.416,0.598,0.657,0.84c0.68,0.678,1.449,1.025,2.311,1.041
		c1.179,0.061,3.043-0.552,5.595-1.836l4.122-2.082c2.854-1.436,5.219-2.017,7.09-1.744c1.314,0.195,2.5,0.821,3.557,1.879
		c0.439,0.438,0.854,0.943,1.246,1.518c1.842,2.719,2.416,5.73,1.721,9.037c-0.695,3.308-2.574,6.494-5.641,9.559
		c-1.555,1.557-3.203,2.874-4.947,3.953C510.574,410.646,508.689,411.534,506.666,412.228"/>
	<polygon points="535.434,381.331 539.375,377.391 541.322,380.243 533.213,388.353 506.758,349.122 502.747,353.13 
		500.799,350.275 508.977,342.099 	"/>
	<polygon points="549.363,372.202 547.439,369.327 553.328,363.437 530.654,329.845 527.392,341.94 525.016,338.385 
		528.955,323.751 532.08,320.626 557.881,358.885 563.771,352.995 565.695,355.87 	"/>
	<path d="M553.785,316.273l-2.539,2.537l-4.848-7.204c0.923-2.643,2.021-5.054,3.297-7.236s2.699-4.059,4.27-5.629
		c3.52-3.518,6.984-5.278,10.396-5.278c3.414,0,6.298,1.752,8.653,5.256c2.673,3.939,3.548,10.978,2.628,21.109
		c-0.075,0.771-0.137,1.359-0.182,1.768l-1.654,18.732l14.112-14.113l-3.351-4.981l2.649-2.649l6.342,9.422l-21.813,21.812
		l-1.992-2.943l2.015-22.494c0.438-4.967,0.38-9.067-0.181-12.299c-0.559-3.231-1.676-6.094-3.352-8.584
		c-1.844-2.72-3.873-4.252-6.094-4.599c-2.219-0.348-4.371,0.521-6.456,2.604c-2.159,2.16-3.394,4.466-3.704,6.92
		C551.674,310.878,552.273,313.495,553.785,316.273"/>
	<path d="M469.15,177.548c-2.812-2.811-4.148-5.793-4.012-8.943c0.138-3.149,1.748-6.267,4.836-9.354
		c1.533-1.534,3.103-2.72,4.71-3.561c1.607-0.839,3.21-1.311,4.809-1.411c1.595-0.1,3.157,0.165,4.683,0.794
		c1.524,0.631,2.99,1.649,4.396,3.054c1.388,1.389,2.403,2.85,3.039,4.383c0.641,1.534,0.896,3.096,0.768,4.685
		c-0.127,1.589-0.617,3.191-1.465,4.807c-0.85,1.617-2.049,3.201-3.602,4.753c-3.141,3.141-6.25,4.761-9.327,4.862
		C474.908,181.716,471.963,180.36,469.15,177.548 M472.412,174.289c0.674,0.675,1.436,1.192,2.286,1.548
		c0.849,0.355,1.747,0.507,2.698,0.452c0.949-0.055,1.943-0.347,2.984-0.877c1.041-0.529,2.102-1.332,3.18-2.41
		c2.152-2.154,3.367-4.21,3.643-6.163c0.273-1.954-0.394-3.736-2-5.342c-1.607-1.607-3.396-2.283-5.371-2.027
		c-1.971,0.256-4.033,1.462-6.188,3.616c-2.156,2.155-3.297,4.163-3.426,6.027C470.091,170.974,470.822,172.7,472.412,174.289"/>
	<path d="M508.458,179.219l3.862,3.862l-12.135,12.135c-2.209,2.21-4.523,3.229-6.939,3.058c-2.418-0.171-4.821-1.451-7.207-3.838
		c-2.207-2.206-3.422-4.482-3.646-6.824c-0.227-2.344,0.754-4.613,2.947-6.804l12.354-12.354l3.863,3.862l-12,11.998
		c-1.132,1.133-1.742,2.31-1.834,3.534c-0.092,1.223,0.383,2.355,1.424,3.396c2.43,2.429,4.821,2.465,7.176,0.11L508.458,179.219z"
		/>
	<polygon points="495.42,202.556 513.58,184.396 526.947,197.763 523.799,200.913 514.129,191.244 510.238,195.134 519.142,204.036 
		515.938,207.241 507.034,198.338 502.35,203.023 512.457,213.131 509.227,216.362 	"/>
	<polygon points="516.621,223.758 534.81,205.57 538.615,209.377 523.742,224.251 532.756,233.263 529.441,236.577 	"/>
	
		<rect x="528.344" y="227.46" transform="matrix(-0.7071 0.7071 -0.7071 -0.7071 1086.634 10.1996)" width="25.721" height="5.386"/>
	<path d="M535.246,242.383l18.188-18.188l8.959,8.958c1.788,1.788,2.707,3.593,2.751,5.409c0.045,1.817-0.697,3.494-2.232,5.027
		c-0.785,0.786-1.693,1.274-2.726,1.466c-1.031,0.191-1.995,0.095-2.89-0.288c0.237,0.53,0.41,1.077,0.52,1.644
		c0.109,0.565,0.111,1.15,0,1.751c-0.107,0.604-0.332,1.22-0.671,1.851c-0.336,0.629-0.833,1.273-1.492,1.931
		c-1.662,1.661-3.538,2.424-5.628,2.286c-2.091-0.136-4.287-1.355-6.589-3.656L535.246,242.383z M546.832,247.78
		c0.878,0.877,1.811,1.315,2.795,1.315c0.986-0.001,1.854-0.374,2.604-1.123c0.803-0.803,1.145-1.63,1.026-2.479
		c-0.12-0.85-0.608-1.704-1.466-2.56l-4.875-4.877l-4.904,4.903L546.832,247.78z M553.955,231.016l-3.943,3.944l4.793,4.794
		c1.535,1.534,2.957,1.643,4.273,0.328c0.693-0.693,0.999-1.392,0.916-2.095c-0.082-0.703-0.57-1.502-1.465-2.397L553.955,231.016z"
		/>
	<polygon points="550.861,257.997 569.021,239.836 582.389,253.203 579.238,256.353 569.569,246.684 565.68,250.574 
		574.582,259.476 571.377,262.681 562.475,253.778 557.789,258.463 567.896,268.571 564.666,271.803 	"/>
	<path d="M575.896,283.033l4.684-4.684c0.877-0.877,1.3-1.703,1.274-2.479c-0.029-0.776-0.589-1.712-1.685-2.808l-4.055-4.054
		l-7.121,7.122l-3.699-3.698l18.189-18.188l9.23,9.231c0.84,0.84,1.471,1.735,1.891,2.684c0.42,0.949,0.643,1.903,0.673,2.86
		c0.028,0.958-0.149,1.894-0.532,2.806s-0.947,1.742-1.695,2.489c-0.986,0.985-2.088,1.623-3.311,1.914s-2.426,0.154-3.612-0.413
		c0.547,1.059,0.724,2.023,0.532,2.891c-0.193,0.868-0.82,1.833-1.882,2.895l-5.157,5.158L575.896,283.033z M584.03,261.092
		l-4.82,4.821l4.766,4.765c1.022,1.023,1.972,1.518,2.847,1.485c0.873-0.034,1.655-0.396,2.345-1.087
		c0.709-0.707,1.085-1.494,1.126-2.359c0.045-0.865-0.409-1.772-1.357-2.722L584.03,261.092z"/>
	<polygon points="585.949,293.086 600.96,278.075 595.481,272.597 598.633,269.447 613.424,284.238 610.273,287.388 
		604.768,281.883 589.757,296.894 	"/>
	<path d="M603.809,310.945l2.603-4.901l-6.712-6.713l-5.039,2.465l-4.027-4.026l24.68-11.696l4.41,4.41l-11.777,24.598
		L603.809,310.945z M613.396,292.319l-0.027-0.027l-9.588,4.929l4.629,4.63L613.396,292.319z"/>
	
		<rect x="469.25" y="175.794" transform="matrix(0.9757 -0.2192 0.2192 0.9757 -28.0362 107.6891)" fill-rule="evenodd" clip-rule="evenodd" width="3.927" height="8.756"/>
</g>
</svg>